<svg width="21" height="21" viewBox="0 0 21 21" fill="none" xmlns="http://www.w3.org/2000/svg">
<path d="M7 7H5.42517C4.44508 7 3.95467 7 3.58032 7.19074C3.25104 7.35852 2.98352 7.62604 2.81574 7.95532C2.625 8.32967 2.625 8.82008 2.625 9.80017V14.7002C2.625 15.6803 2.625 16.1701 2.81574 16.5444C2.98352 16.8737 3.25104 17.1417 3.58032 17.3094C3.9543 17.5 4.44412 17.5 5.4223 17.5H15.5777C16.5559 17.5 17.045 17.5 17.419 17.3094C17.7483 17.1417 18.0167 16.8737 18.1844 16.5444C18.375 16.1704 18.375 15.6813 18.375 14.7031V9.7973C18.375 8.81912 18.375 8.3293 18.1844 7.95532C18.0167 7.62604 17.7483 7.35852 17.419 7.19074C17.0446 7 16.5553 7 15.5752 7H14M7 7H14M7 7C7 5.067 8.567 3.5 10.5 3.5C12.433 3.5 14 5.067 14 7" stroke="black" stroke-width="1.5" stroke-linecap="round" stroke-linejoin="round"/>
</svg>
