<svg width="20" height="20" viewBox="0 0 20 20" fill="none" xmlns="http://www.w3.org/2000/svg">
<rect width="20" height="20" fill="white"/>
<path d="M12.4987 14.1667V15C12.4987 16.3807 11.3794 17.5 9.9987 17.5C8.61798 17.5 7.4987 16.3807 7.4987 15V14.1667M12.4987 14.1667H7.4987M12.4987 14.1667H15.4908C15.8095 14.1667 15.9697 14.1667 16.0988 14.1231C16.3453 14.04 16.5383 13.8464 16.6214 13.5998C16.6651 13.4702 16.6651 13.3096 16.6651 12.9883C16.6651 12.8477 16.665 12.7774 16.654 12.7104C16.6332 12.5837 16.584 12.4636 16.5092 12.3593C16.4696 12.3043 16.4193 12.254 16.3202 12.1549L15.9956 11.8302C15.8909 11.7255 15.832 11.5834 15.832 11.4353V8.33333C15.832 5.11167 13.2204 2.49999 9.9987 2.5C6.77704 2.50001 4.16536 5.11168 4.16536 8.33333V11.4354C4.16536 11.5835 4.1064 11.7255 4.00167 11.8302L3.67708 12.1548C3.57766 12.2542 3.5279 12.3042 3.48828 12.3594C3.41341 12.4636 3.36382 12.5837 3.34303 12.7104C3.33203 12.7774 3.33203 12.8477 3.33203 12.9883C3.33203 13.3096 3.33203 13.4702 3.37574 13.5998C3.45891 13.8463 3.6527 14.04 3.89925 14.1231C4.02833 14.1667 4.18788 14.1667 4.50666 14.1667H7.4987" stroke="#3E7092" stroke-width="1.66667" stroke-linecap="round" stroke-linejoin="round"/>
</svg>
