<svg width="15" height="24" viewBox="0 0 15 24" fill="none" xmlns="http://www.w3.org/2000/svg">
<path opacity="0.5" d="M7.45153 21.0218C5.41419 21.0218 2.53381 20.2256 0.941406 18.6566L2.48698 16.3148C3.93887 17.6028 5.71862 18.2116 7.45153 18.2116C9.81672 18.2116 10.8939 17.4857 10.8939 16.1275C10.8939 13.0597 1.64394 14.0199 1.64394 8.44644C1.64394 5.40214 4.07938 3.43505 7.75596 3.43505C10.5661 3.43505 12.4161 4.48884 14.0085 5.91732L12.2756 7.97808C10.9174 6.85403 9.48887 6.24517 7.89647 6.24517C6.14014 6.24517 4.94584 6.87745 4.94584 8.21226C4.94584 11.1161 14.1958 10.1325 14.1958 15.823C14.1958 18.8907 11.7604 21.0218 7.45153 21.0218ZM6.70217 4.58252V0.53125H8.9971V4.58252H6.70217ZM6.70217 23.949V19.6401H8.9971V23.949H6.70217Z" fill="black"/>
</svg>
