<svg width="26" height="26" viewBox="0 0 26 26" fill="none" xmlns="http://www.w3.org/2000/svg">
<path d="M11.918 19.4974C11.918 20.0957 12.403 20.5807 13.0013 20.5807C13.5996 20.5807 14.0846 20.0957 14.0846 19.4974C14.0846 18.8991 13.5996 18.4141 13.0013 18.4141C12.403 18.4141 11.918 18.8991 11.918 19.4974Z" stroke="black" stroke-width="2" stroke-linecap="round" stroke-linejoin="round"/>
<path d="M11.918 12.9974C11.918 13.5957 12.403 14.0807 13.0013 14.0807C13.5996 14.0807 14.0846 13.5957 14.0846 12.9974C14.0846 12.3991 13.5996 11.9141 13.0013 11.9141C12.403 11.9141 11.918 12.3991 11.918 12.9974Z" stroke="black" stroke-width="2" stroke-linecap="round" stroke-linejoin="round"/>
<path d="M11.918 6.4974C11.918 7.0957 12.403 7.58073 13.0013 7.58073C13.5996 7.58073 14.0846 7.0957 14.0846 6.4974C14.0846 5.89909 13.5996 5.41406 13.0013 5.41406C12.403 5.41406 11.918 5.89909 11.918 6.4974Z" stroke="black" stroke-width="2" stroke-linecap="round" stroke-linejoin="round"/>
</svg>
