<svg width="21" height="21" viewBox="0 0 21 21" fill="none" xmlns="http://www.w3.org/2000/svg">
<path d="M17.5 14.87V10.0155C17.5 9.54797 17.4996 9.31406 17.4427 9.0965C17.3924 8.9037 17.3097 8.72125 17.1977 8.55637C17.0714 8.37032 16.8959 8.21604 16.544 7.90816L12.344 4.23316C11.6907 3.66154 11.3641 3.37587 10.9965 3.26716C10.6725 3.17136 10.3273 3.17136 10.0034 3.26716C9.63604 3.37579 9.30987 3.66118 8.65757 4.23194L4.45618 7.90816C4.10431 8.21604 3.92879 8.37032 3.80249 8.55637C3.69057 8.72125 3.60723 8.9037 3.55685 9.0965C3.5 9.31406 3.5 9.54796 3.5 10.0155V14.87C3.5 15.6854 3.5 16.0929 3.63321 16.4145C3.81083 16.8433 4.15128 17.1844 4.58008 17.362C4.90168 17.4952 5.30938 17.4952 6.12477 17.4952C6.94017 17.4952 7.34832 17.4952 7.66992 17.362C8.09872 17.1844 8.43908 16.8434 8.6167 16.4146C8.74991 16.093 8.75 15.6853 8.75 14.8699V13.9949C8.75 13.0284 9.5335 12.2449 10.5 12.2449C11.4665 12.2449 12.25 13.0284 12.25 13.9949V14.8699C12.25 15.6853 12.25 16.093 12.3832 16.4146C12.5608 16.8434 12.9013 17.1844 13.3301 17.362C13.6517 17.4952 14.0594 17.4952 14.8748 17.4952C15.6902 17.4952 16.0983 17.4952 16.4199 17.362C16.8487 17.1844 17.1891 16.8433 17.3667 16.4145C17.4999 16.0929 17.5 15.6854 17.5 14.87Z" fill="#3A95E8" stroke="#3A95E8" stroke-width="1.5" stroke-linecap="round" stroke-linejoin="round"/>
</svg>
